<?xml version="1.0" encoding="UTF-8"?>
<svg xmlns="http://www.w3.org/2000/svg" xmlns:xlink="http://www.w3.org/1999/xlink" width="120px" height="49px" viewBox="0 0 120 49" version="1.1">
<defs>
<clipPath id="clip1">
  <path d="M 0 0 L 119.929688 0 L 119.929688 49 L 0 49 Z M 0 0 "/>
</clipPath>
</defs>
<g id="surface1">
<g clip-path="url(#clip1)" clip-rule="nonzero">
<path style=" stroke:none;fill-rule:nonzero;fill:rgb(0.784314%,35.294119%,99.215686%);fill-opacity:1;" d="M 40.617188 0.246094 C 40.535156 0.410156 40.042969 0.542969 39.519531 0.542969 C 38.445312 0.542969 38.117188 1.117188 38.417969 2.476562 C 38.558594 3.101562 38.527344 3.292969 38.28125 3.128906 C 38.117188 3.023438 37.511719 2.941406 36.960938 2.941406 C 36.414062 2.941406 35.78125 2.804688 35.558594 2.640625 C 35.09375 2.230469 34.378906 2.152344 34.597656 2.503906 C 34.816406 2.859375 33.636719 2.503906 33.058594 2.070312 C 32.617188 1.714844 31.683594 1.796875 31.683594 2.179688 C 31.683594 2.585938 30.28125 2.75 29.84375 2.394531 C 29.511719 2.125 29.375 2.152344 29.15625 2.53125 C 29.015625 2.804688 28.796875 2.941406 28.660156 2.859375 C 28.523438 2.777344 28.328125 2.96875 28.246094 3.265625 C 28.082031 3.785156 28 3.8125 27.476562 3.457031 C 26.734375 2.996094 26.1875 3.15625 26.1875 3.839844 C 26.1875 4.464844 26.101562 4.464844 25.03125 3.921875 C 24.507812 3.648438 23.65625 3.511719 22.777344 3.566406 C 21.128906 3.648438 18.929688 3.320312 17.9375 2.886719 C 17.472656 2.667969 16.8125 2.640625 15.875 2.777344 C 15.132812 2.914062 14.144531 3.050781 13.675781 3.074219 C 12.605469 3.15625 12.164062 3.457031 12.164062 4.109375 C 12.164062 4.738281 11.835938 4.765625 10.84375 4.246094 C 8.785156 3.210938 8.671875 3.183594 7.382812 3.539062 C 6.667969 3.730469 5.648438 3.8125 4.960938 3.703125 C 3.835938 3.539062 2.984375 3.484375 1.9375 3.539062 C 1.664062 3.566406 1.195312 3.320312 0.867188 3.023438 C 0.152344 2.367188 -0.699219 2.042969 -0.976562 2.3125 C -1.085938 2.421875 -1.140625 3.050781 -1.113281 3.757812 C -1.085938 4.4375 -1.195312 5.253906 -1.359375 5.554688 C -1.773438 6.316406 -1.9375 8.085938 -1.882812 11.214844 C -1.800781 15.164062 -2.242188 17.695312 -3.203125 19.109375 C -3.644531 19.761719 -4.082031 20.660156 -4.191406 21.097656 C -4.328125 21.886719 -4.273438 21.96875 -3.175781 22.429688 C -0.371094 23.601562 0.34375 23.984375 0.589844 24.472656 C 0.785156 24.800781 1.085938 24.933594 1.414062 24.855469 C 1.691406 24.773438 2.019531 24.855469 2.101562 25.015625 C 2.214844 25.179688 2.707031 25.316406 3.230469 25.316406 C 3.753906 25.316406 4.246094 25.453125 4.328125 25.617188 C 4.441406 25.78125 4.714844 25.808594 4.988281 25.699219 C 5.730469 25.398438 7.328125 25.589844 7.683594 26.023438 C 7.875 26.296875 8.152344 26.378906 8.371094 26.242188 C 8.5625 26.105469 9.277344 25.996094 9.964844 25.996094 C 10.871094 25.996094 11.203125 25.886719 11.203125 25.589844 C 11.203125 24.910156 11.835938 24.71875 12.714844 25.179688 C 13.238281 25.453125 13.703125 25.535156 14.035156 25.371094 C 14.28125 25.234375 15.492188 25.152344 16.699219 25.179688 C 18.019531 25.207031 19.121094 25.097656 19.476562 24.882812 C 20 24.582031 20.027344 24.636719 20.027344 25.5625 C 20.027344 26.105469 19.863281 26.679688 19.644531 26.839844 C 19.203125 27.167969 19.09375 28.257812 18.898438 34.4375 C 18.84375 36.667969 18.707031 38.820312 18.625 39.144531 C 18.515625 39.554688 18.570312 39.71875 18.761719 39.609375 C 18.929688 39.527344 19.039062 39.691406 19.011719 40.070312 C 19.011719 40.425781 19.066406 40.96875 19.175781 41.324219 C 19.285156 41.648438 19.257812 41.921875 19.121094 41.921875 C 18.957031 41.921875 18.761719 42.683594 18.679688 43.609375 C 18.515625 45.433594 18.816406 45.976562 20 46.003906 C 20.328125 46.003906 20.714844 46.140625 20.90625 46.332031 C 21.097656 46.523438 21.320312 46.550781 21.566406 46.359375 C 22.035156 46.003906 23.105469 45.976562 23.300781 46.304688 C 23.410156 46.441406 23.601562 46.496094 23.738281 46.386719 C 23.902344 46.304688 24.234375 46.496094 24.453125 46.820312 C 24.867188 47.421875 24.921875 47.421875 25.25 46.957031 C 25.582031 46.523438 25.71875 46.496094 26.324219 46.820312 C 26.871094 47.09375 27.066406 47.121094 27.421875 46.820312 C 27.945312 46.386719 28.933594 46.632812 29.8125 47.476562 C 30.308594 47.910156 30.640625 48.019531 30.832031 47.828125 C 30.996094 47.667969 31.4375 47.53125 31.847656 47.476562 C 32.371094 47.421875 32.617188 47.53125 32.699219 47.9375 C 32.839844 48.457031 33.222656 48.566406 34.296875 48.457031 C 35.066406 48.375 35.039062 48.402344 35.367188 46.277344 L 35.671875 44.371094 L 36.878906 44.972656 C 37.539062 45.296875 38.144531 45.789062 38.226562 46.058594 C 38.363281 46.605469 38.585938 46.6875 38.996094 46.277344 C 39.214844 46.058594 39.410156 46.113281 39.65625 46.414062 C 39.847656 46.632812 40.398438 46.820312 40.894531 46.820312 C 41.386719 46.820312 41.9375 47.011719 42.128906 47.230469 C 42.40625 47.558594 42.542969 47.585938 43.011719 47.257812 C 43.367188 47.011719 43.835938 46.957031 44.496094 47.09375 C 44.988281 47.203125 45.429688 47.230469 45.429688 47.121094 C 45.429688 47.039062 45.675781 47.257812 45.980469 47.640625 C 46.28125 48.019531 46.527344 48.15625 46.527344 47.964844 C 46.527344 47.667969 46.886719 47.613281 48.015625 47.71875 L 49.472656 47.855469 L 49.664062 45.707031 C 49.773438 44.507812 49.746094 43.335938 49.609375 43.066406 C 49.058594 42.058594 48.589844 38.65625 48.976562 38.65625 C 49.195312 38.65625 49.332031 39.035156 49.71875 41.105469 C 49.800781 41.621094 50.046875 42.25 50.269531 42.464844 C 50.460938 42.710938 50.570312 43.230469 50.488281 43.691406 C 50.40625 44.371094 50.515625 44.589844 51.203125 45.054688 C 51.644531 45.351562 52.027344 45.789062 52.027344 46.03125 C 52.027344 46.578125 53.320312 47.503906 53.457031 47.066406 C 53.566406 46.742188 56.894531 46.222656 59.585938 46.140625 C 60.660156 46.113281 62.007812 45.871094 62.585938 45.625 C 63.160156 45.378906 64.015625 45.105469 64.453125 45.054688 C 65.609375 44.835938 67.148438 45.1875 67.148438 45.625 C 67.148438 46.085938 67.449219 46.113281 68.355469 45.707031 C 68.90625 45.433594 69.210938 45.488281 70.089844 46.003906 C 70.667969 46.359375 71.300781 46.820312 71.492188 47.066406 C 71.820312 47.449219 71.929688 47.421875 72.480469 46.742188 C 73.03125 46.058594 73.140625 46.03125 73.304688 46.414062 C 73.414062 46.714844 73.664062 46.820312 74.019531 46.742188 C 74.324219 46.660156 74.570312 46.714844 74.570312 46.875 C 74.570312 47.011719 74.789062 47.09375 75.066406 47.039062 C 75.3125 47.011719 75.699219 47.066406 75.890625 47.175781 C 76.082031 47.3125 76.21875 47.257812 76.21875 47.09375 C 76.21875 46.902344 76.414062 46.847656 76.6875 46.929688 C 77.566406 47.285156 78.96875 47.394531 78.96875 47.121094 C 78.96875 46.957031 79.273438 46.957031 79.875 47.121094 C 80.589844 47.3125 80.8125 47.285156 81.113281 46.902344 C 81.359375 46.550781 81.527344 46.523438 81.773438 46.769531 C 81.964844 46.957031 82.019531 47.09375 81.882812 47.09375 C 81.773438 47.09375 81.882812 47.285156 82.128906 47.53125 C 82.515625 47.9375 82.652344 47.855469 83.644531 46.847656 C 84.660156 45.816406 84.796875 45.761719 85.484375 46.058594 C 85.925781 46.222656 86.417969 46.332031 86.613281 46.304688 C 86.804688 46.277344 87.355469 46.496094 87.847656 46.796875 C 88.535156 47.203125 88.785156 47.230469 89.03125 46.984375 C 89.222656 46.769531 90.1875 46.6875 91.917969 46.714844 C 93.59375 46.742188 94.695312 46.632812 95.050781 46.414062 C 95.820312 45.953125 99.257812 45.707031 99.421875 46.113281 C 99.476562 46.277344 99.558594 46.195312 99.558594 45.921875 C 99.585938 45.378906 100.027344 45.296875 100.21875 45.789062 C 100.441406 46.386719 101.375 45.625 101.457031 44.808594 C 101.539062 44.261719 101.675781 44.101562 101.980469 44.207031 C 102.199219 44.289062 102.558594 44.371094 102.75 44.371094 C 102.96875 44.371094 103.492188 44.753906 103.902344 45.1875 L 104.671875 46.003906 L 106.214844 45.488281 C 107.066406 45.1875 108.027344 45.027344 108.355469 45.105469 C 108.714844 45.1875 109.070312 45.132812 109.183594 44.972656 C 109.320312 44.753906 109.648438 44.726562 110.363281 44.917969 C 111.023438 45.105469 111.601562 45.105469 112.070312 44.917969 C 112.699219 44.699219 112.785156 44.726562 112.785156 45.214844 C 112.785156 45.679688 112.894531 45.734375 113.277344 45.570312 C 113.527344 45.460938 114.296875 45.378906 114.984375 45.40625 C 115.644531 45.460938 116.550781 45.324219 116.988281 45.160156 C 117.621094 44.890625 117.8125 44.890625 118.007812 45.214844 C 118.308594 45.679688 118.832031 44.453125 118.832031 43.257812 C 118.832031 42.820312 119.105469 41.566406 119.410156 40.480469 L 120.015625 38.492188 L 119.273438 36.996094 C 118.527344 35.441406 118.363281 34.191406 118.804688 33.890625 C 118.96875 33.808594 118.914062 33.292969 118.667969 32.613281 C 118.363281 31.742188 118.335938 31.277344 118.558594 30.761719 C 118.722656 30.378906 118.777344 29.210938 118.722656 28.148438 C 118.613281 26.433594 118.5 26.132812 117.730469 25.34375 C 117.265625 24.882812 116.6875 24.5 116.46875 24.5 C 116.21875 24.5 116.109375 24.390625 116.21875 24.226562 C 116.300781 24.089844 116.136719 23.738281 115.808594 23.410156 C 115.503906 23.113281 115.257812 22.703125 115.257812 22.511719 C 115.257812 22.296875 115.175781 22.296875 115.039062 22.484375 C 114.929688 22.648438 114.625 22.839844 114.351562 22.949219 C 113.992188 23.085938 113.910156 23.300781 114.019531 23.65625 C 114.296875 24.527344 113.691406 24.554688 112.976562 23.683594 C 112.398438 23.03125 112.207031 22.921875 111.902344 23.21875 C 111.105469 23.929688 110.363281 24.226562 110.226562 23.875 C 110.171875 23.710938 109.8125 23.574219 109.429688 23.601562 C 108.90625 23.65625 108.660156 23.519531 108.523438 23.058594 C 108.414062 22.703125 108.300781 22.59375 108.191406 22.785156 C 108 23.273438 106.597656 23.21875 106.1875 22.730469 C 105.882812 22.347656 105.800781 22.375 105.441406 22.867188 C 104.976562 23.519531 103.710938 23.601562 103.710938 23.003906 C 103.710938 22.785156 103.601562 22.59375 103.4375 22.59375 C 103.300781 22.59375 103.160156 22.730469 103.160156 22.894531 C 103.160156 23.058594 102.996094 23.140625 102.777344 23.058594 C 102.558594 22.976562 102.171875 23.140625 101.898438 23.4375 C 101.59375 23.765625 101.238281 23.902344 100.988281 23.792969 C 100.742188 23.683594 99.558594 23.546875 98.351562 23.519531 C 95.1875 23.410156 94.28125 23.273438 93.511719 22.785156 C 92.960938 22.457031 92.550781 22.429688 91.203125 22.648438 C 88.785156 23.03125 87.519531 23.113281 87.355469 22.867188 C 87.300781 22.757812 86.914062 22.730469 86.527344 22.8125 C 86.144531 22.867188 85.539062 22.730469 85.15625 22.484375 C 84.769531 22.242188 84.328125 22.105469 84.164062 22.214844 C 84 22.296875 83.808594 22.132812 83.726562 21.832031 C 83.613281 21.398438 83.394531 21.289062 82.542969 21.371094 C 81.964844 21.398438 81.332031 21.53125 81.140625 21.640625 C 80.921875 21.777344 80.589844 21.613281 80.234375 21.152344 C 79.683594 20.5 79.628906 20.472656 79.328125 20.90625 C 79.078125 21.289062 78.941406 21.316406 78.445312 21.015625 C 78.0625 20.796875 77.871094 20.796875 77.871094 20.988281 C 77.871094 21.125 77.757812 21.207031 77.621094 21.097656 C 77.484375 21.015625 77.265625 21.097656 77.15625 21.261719 C 77.042969 21.476562 76.90625 21.453125 76.742188 21.207031 C 76.550781 20.90625 76.441406 20.90625 76.273438 21.179688 C 75.972656 21.613281 74.15625 20.933594 73.910156 20.253906 C 73.746094 19.84375 73.664062 19.84375 73.058594 20.417969 L 72.398438 21.042969 L 71.273438 20.199219 L 70.117188 19.355469 L 68.769531 20.199219 C 67.863281 20.742188 67.203125 20.960938 66.789062 20.851562 C 66.433594 20.769531 65.828125 20.878906 65.386719 21.097656 C 64.453125 21.585938 64.316406 21.613281 64.535156 21.207031 C 64.644531 21.042969 64.453125 21.070312 64.125 21.289062 C 63.601562 21.585938 63.492188 21.558594 63.050781 21.070312 C 62.695312 20.632812 62.445312 20.554688 62.117188 20.742188 C 61.84375 20.878906 61.539062 20.933594 61.402344 20.851562 C 61.265625 20.769531 61.070312 20.878906 60.988281 21.125 C 60.824219 21.53125 60.769531 21.53125 60.328125 21.179688 C 59.558594 20.527344 58.871094 20.390625 58.242188 20.769531 C 57.773438 21.070312 54.996094 21.179688 52.796875 20.988281 C 52.660156 20.960938 52.578125 20.769531 52.578125 20.554688 C 52.578125 20.035156 51.753906 20.117188 51.285156 20.6875 C 51.011719 21.015625 50.957031 21.015625 50.929688 20.714844 C 50.929688 20.527344 50.761719 20.417969 50.515625 20.527344 C 49.964844 20.714844 49.964844 19.601562 50.515625 17.75 C 50.816406 16.824219 50.984375 14.78125 51.039062 11.378906 C 51.09375 8.628906 51.230469 5.824219 51.339844 5.117188 C 51.449219 4.4375 51.449219 3.183594 51.367188 2.339844 C 51.203125 1.144531 51.039062 0.816406 50.570312 0.652344 C 49.773438 0.410156 47.902344 0.328125 47.765625 0.542969 C 47.601562 0.789062 43.285156 0.515625 41.664062 0.164062 C 41.140625 0.0546875 40.726562 0.0820312 40.617188 0.246094 Z M 43.394531 4.492188 C 43.3125 4.710938 43.367188 4.898438 43.476562 4.898438 C 43.613281 4.898438 43.863281 5.796875 44.054688 6.859375 C 44.21875 7.949219 44.414062 9.039062 44.441406 9.253906 C 44.550781 9.910156 44.769531 9.148438 45.15625 6.777344 C 45.484375 4.816406 45.539062 4.710938 46.363281 4.410156 C 46.859375 4.21875 47.820312 4.082031 48.507812 4.082031 L 49.746094 4.082031 L 48.507812 8.222656 C 47.820312 10.507812 47.132812 12.46875 46.996094 12.550781 C 46.859375 12.660156 46.75 14.5625 46.75 16.988281 L 46.75 21.234375 L 42.679688 21.234375 L 42.679688 19.761719 C 42.679688 18.945312 42.816406 18.183594 42.984375 18.074219 C 43.203125 17.964844 43.203125 17.832031 42.984375 17.613281 C 42.816406 17.449219 42.679688 16.769531 42.679688 16.117188 C 42.679688 15.054688 42.734375 14.945312 43.257812 15.109375 C 43.753906 15.273438 43.78125 15.246094 43.449219 14.726562 C 43.257812 14.429688 43.039062 14.292969 42.957031 14.453125 C 42.816406 14.671875 39.382812 4.871094 39.382812 4.273438 C 39.382812 4.164062 40.316406 4.082031 41.472656 4.082031 C 43.230469 4.082031 43.53125 4.136719 43.394531 4.492188 Z M 35.039062 5.0625 C 35.449219 5.28125 35.863281 5.582031 35.972656 5.742188 C 36.082031 5.960938 36.054688 5.988281 35.863281 5.878906 C 35.671875 5.769531 35.53125 5.796875 35.53125 5.960938 C 35.53125 6.097656 35.449219 6.453125 35.339844 6.722656 C 35.148438 7.1875 35.175781 7.1875 35.863281 6.75 C 36.550781 6.289062 36.578125 6.316406 36.742188 6.886719 C 37.070312 8.113281 36.933594 10.070312 36.523438 10.070312 C 36.300781 10.070312 36.027344 9.828125 35.945312 9.527344 C 35.753906 8.929688 35.394531 8.820312 35.09375 9.308594 C 34.984375 9.5 35.011719 9.527344 35.203125 9.417969 C 35.394531 9.308594 35.53125 9.335938 35.53125 9.5 C 35.53125 9.882812 34.542969 10.152344 33.882812 9.9375 C 33.5 9.828125 33.332031 9.527344 33.332031 8.984375 C 33.332031 8.546875 33.195312 8.113281 33.058594 8.03125 C 32.894531 7.921875 32.839844 7.730469 32.921875 7.59375 C 33.113281 7.296875 32.316406 7.296875 31.546875 7.621094 C 31.1875 7.757812 30.832031 7.675781 30.5 7.40625 C 30.0625 6.996094 30.035156 7.023438 30.199219 7.433594 C 30.28125 7.675781 30.472656 7.894531 30.613281 7.894531 C 30.75 7.894531 30.859375 8.140625 30.859375 8.410156 C 30.859375 9.148438 31.929688 10.34375 34.296875 12.25 C 35.394531 13.121094 36.496094 14.292969 36.742188 14.808594 C 37.210938 15.789062 37.375 18.648438 36.933594 18.375 C 36.769531 18.292969 36.714844 18.511719 36.796875 18.863281 C 36.933594 19.761719 36 20.90625 34.597656 21.53125 C 33.386719 22.078125 31.273438 22.214844 30.996094 21.777344 C 30.886719 21.613281 30.695312 21.558594 30.558594 21.640625 C 30.417969 21.75 30.308594 21.695312 30.308594 21.585938 C 30.308594 21.453125 29.980469 21.316406 29.59375 21.289062 C 28.054688 21.179688 27.558594 20.335938 27.09375 17.066406 C 26.957031 16.089844 26.984375 16.0625 27.863281 16.035156 C 28.386719 16.007812 29.265625 15.953125 29.84375 15.925781 C 30.777344 15.871094 30.859375 15.925781 30.859375 16.632812 C 30.859375 17.042969 30.96875 17.695312 31.105469 18.046875 C 31.65625 19.464844 33.332031 19.136719 33.332031 17.613281 C 33.332031 16.6875 32.5625 15.679688 30.859375 14.429688 C 27.671875 12.085938 27.175781 11.269531 27.339844 8.683594 C 27.421875 6.996094 27.53125 6.695312 28.300781 5.960938 C 29.8125 4.464844 33.03125 4.027344 35.039062 5.0625 Z M 21.457031 5.582031 C 21.375 5.933594 21.402344 6.289062 21.511719 6.316406 C 21.621094 6.371094 21.953125 7.757812 22.226562 9.417969 C 22.722656 12.140625 22.722656 12.496094 22.335938 12.738281 C 21.980469 13.011719 21.980469 13.039062 22.417969 13.039062 C 22.667969 13.066406 22.886719 13.121094 22.886719 13.175781 C 22.886719 13.257812 23.132812 14.617188 23.464844 16.222656 C 23.765625 17.804688 23.957031 19.164062 23.875 19.246094 C 23.820312 19.328125 23.929688 19.789062 24.152344 20.28125 C 24.839844 21.96875 24.757812 22.050781 22.5 22.050781 C 20.273438 22.050781 20.136719 21.941406 20.136719 19.925781 C 20.136719 19.054688 20.136719 19.054688 18.761719 19.054688 C 17.277344 19.054688 17.222656 19.109375 17.058594 21.097656 L 16.976562 21.914062 L 14.996094 21.996094 C 13.210938 22.078125 12.988281 22.023438 12.988281 21.585938 C 12.988281 20.90625 13.375 20.363281 13.8125 20.472656 C 14.007812 20.527344 14.226562 20.390625 14.28125 20.199219 C 14.363281 20.035156 14.226562 19.871094 13.980469 19.871094 C 13.402344 19.871094 13.429688 19.164062 14.117188 15.898438 C 14.417969 14.402344 14.722656 12.902344 14.777344 12.523438 C 15.050781 10.589844 15.820312 6.480469 16.179688 5.226562 C 16.234375 5.007812 17.03125 4.898438 18.929688 4.898438 L 21.566406 4.898438 Z M 6.941406 5.851562 C 6.75 6.070312 6.75 6.261719 6.914062 6.371094 C 7.050781 6.480469 7.242188 6.289062 7.355469 5.988281 C 7.4375 5.6875 7.765625 5.445312 8.070312 5.445312 C 8.535156 5.445312 8.589844 5.636719 8.589844 7.105469 L 8.589844 8.738281 L 6.472656 8.710938 C 3.558594 8.628906 3.476562 8.683594 3.613281 10.425781 C 3.671875 11.1875 3.835938 11.921875 4.027344 12.058594 C 4.191406 12.167969 5.15625 12.195312 6.199219 12.085938 L 8.042969 11.921875 L 8.042969 15.597656 L 6.0625 15.40625 C 4.742188 15.300781 4 15.082031 3.835938 14.835938 C 3.726562 14.617188 3.394531 14.429688 3.148438 14.429688 C 2.734375 14.453125 2.734375 14.480469 3.203125 14.835938 C 3.644531 15.164062 3.753906 15.597656 3.753906 17.148438 L 3.78125 19.054688 L 5.292969 19.109375 C 6.117188 19.136719 7.1875 19.136719 7.628906 19.136719 C 8.699219 19.136719 8.867188 19.4375 8.8125 21.125 L 8.785156 22.539062 L 4.933594 22.511719 C 1.472656 22.484375 1.085938 22.429688 0.949219 21.996094 C 0.894531 21.722656 0.699219 21.503906 0.5625 21.503906 C 0.398438 21.503906 0.34375 21.695312 0.453125 21.914062 C 0.535156 22.160156 0.453125 22.320312 0.207031 22.320312 C -0.015625 22.320312 -0.207031 22.078125 -0.207031 21.777344 C -0.207031 21.234375 0.234375 21.097656 2.679688 20.851562 C 3.285156 20.796875 2.929688 20.769531 1.855469 20.796875 L -0.0703125 20.824219 L -0.152344 13.121094 L -0.207031 5.417969 L 3.503906 5.472656 C 6.558594 5.5 7.1875 5.554688 6.941406 5.851562 Z M 61.59375 24.445312 C 62.777344 25.289062 63.214844 26.40625 63.273438 28.691406 C 63.328125 30.433594 63.242188 30.652344 62.472656 31.632812 L 61.621094 32.667969 L 62.390625 33.320312 C 63.132812 33.972656 63.160156 34.054688 63.242188 37.210938 C 63.300781 38.980469 63.214844 40.914062 63.105469 41.515625 L 62.859375 42.601562 L 61.238281 42.628906 C 60.328125 42.628906 59.449219 42.546875 59.257812 42.414062 C 59.066406 42.25 58.929688 41.023438 58.929688 38.875 C 58.902344 37.078125 58.761719 35.363281 58.597656 35.089844 C 58.433594 34.761719 58.046875 34.570312 57.527344 34.570312 L 56.699219 34.570312 L 56.699219 42.765625 L 54.859375 42.628906 C 53.8125 42.574219 52.824219 42.492188 52.660156 42.492188 C 52.386719 42.464844 52.300781 40.398438 52.300781 33.074219 L 52.300781 23.683594 L 56.507812 23.765625 C 60.386719 23.820312 60.742188 23.875 61.59375 24.445312 Z M 97.964844 28.992188 C 98.433594 31.578125 98.597656 33.101562 98.433594 33.183594 C 98.269531 33.238281 98.296875 33.375 98.515625 33.484375 C 98.707031 33.621094 99.066406 34.898438 99.339844 36.394531 C 99.78125 38.792969 99.808594 40.316406 99.449219 43.011719 C 99.421875 43.308594 98.957031 43.445312 97.609375 43.5 L 95.820312 43.582031 L 95.628906 41.921875 L 95.4375 40.289062 L 92.769531 40.289062 L 92.386719 43.554688 L 90.046875 43.554688 C 87.765625 43.554688 87.710938 43.527344 87.847656 42.929688 C 87.929688 42.601562 88.371094 40.234375 88.867188 37.703125 C 90.351562 29.617188 91.09375 25.753906 91.257812 25.234375 C 91.367188 24.800781 91.699219 24.773438 94.308594 24.828125 L 97.25 24.910156 Z M 25.359375 25.289062 C 25.359375 25.726562 26.40625 25.808594 27.175781 25.425781 C 27.753906 25.125 28.136719 25.097656 28.742188 25.316406 C 29.210938 25.453125 29.84375 25.589844 30.199219 25.589844 C 31.492188 25.589844 33.003906 28.664062 32.644531 30.597656 L 32.453125 31.523438 L 30.363281 31.46875 L 28.246094 31.441406 L 28.246094 30.214844 C 28.246094 29.535156 28.136719 28.828125 28.027344 28.636719 C 27.726562 28.203125 26.597656 28.230469 26.214844 28.691406 C 25.882812 29.074219 25.746094 39.527344 26.046875 40.042969 C 26.269531 40.34375 27.753906 40.371094 27.945312 40.070312 C 28.027344 39.933594 28.109375 39.28125 28.136719 38.574219 C 28.191406 37.621094 28.328125 37.265625 28.714844 37.132812 C 28.988281 37.050781 29.128906 36.859375 29.042969 36.695312 C 28.933594 36.503906 28.796875 36.53125 28.660156 36.75 C 28.550781 36.914062 28.109375 37.023438 27.671875 36.96875 C 26.902344 36.886719 26.871094 36.859375 26.789062 35.035156 L 26.707031 33.210938 L 32.785156 33.210938 L 32.785156 43.828125 L 30.722656 43.828125 C 28.6875 43.828125 28.660156 43.828125 28.660156 43.121094 L 28.660156 42.414062 L 27.835938 43.09375 C 25.582031 44.972656 22.117188 43.71875 21.621094 40.859375 C 21.539062 40.316406 21.402344 39.664062 21.320312 39.363281 C 21.210938 38.980469 21.265625 38.929688 21.539062 39.089844 C 21.871094 39.253906 21.871094 39.226562 21.566406 38.875 C 21.320312 38.574219 21.265625 37.160156 21.292969 33.457031 C 21.375 28.691406 21.402344 28.394531 22.0625 27.277344 C 22.417969 26.652344 23.105469 25.886719 23.574219 25.589844 C 24.425781 25.015625 25.359375 24.882812 25.359375 25.289062 Z M 75.011719 26.597656 C 75.121094 27.46875 75.230469 28.285156 75.257812 28.445312 C 75.257812 28.582031 75.449219 29.808594 75.671875 31.167969 L 76.082031 33.621094 L 76.246094 32.121094 C 76.46875 30.296875 76.769531 28.066406 77.015625 26.40625 L 77.183594 25.179688 L 80.5625 25.097656 C 83.148438 25.042969 83.917969 25.097656 83.917969 25.371094 C 83.917969 25.5625 83.945312 29.753906 83.972656 34.707031 L 84.027344 43.691406 L 81.910156 43.773438 L 79.792969 43.828125 L 79.792969 42.359375 C 79.792969 41.242188 79.902344 40.777344 80.289062 40.5625 C 80.726562 40.261719 80.726562 40.261719 80.261719 40.398438 C 79.820312 40.535156 79.792969 40.207031 79.820312 35.769531 C 79.820312 33.128906 79.792969 30.953125 79.738281 30.871094 C 79.65625 30.816406 79.464844 31.660156 79.273438 32.722656 C 79.078125 33.808594 78.804688 35.253906 78.667969 35.933594 C 78.5 36.613281 78.390625 37.347656 78.363281 37.566406 C 78.335938 38.4375 77.84375 41.8125 77.675781 42.195312 C 77.566406 42.414062 77.484375 42.847656 77.484375 43.121094 C 77.457031 43.417969 77.292969 43.691406 77.070312 43.773438 C 76.851562 43.855469 76.769531 43.773438 76.878906 43.582031 C 77.128906 43.203125 76.496094 43.203125 75.558594 43.554688 C 74.984375 43.773438 74.816406 43.71875 74.542969 43.257812 C 74.378906 42.957031 74.324219 42.628906 74.40625 42.546875 C 74.460938 42.464844 74.433594 42.140625 74.296875 41.785156 C 74.15625 41.433594 73.992188 40.617188 73.910156 39.960938 C 73.828125 39.335938 73.5 37.457031 73.195312 35.824219 C 72.894531 34.164062 72.617188 32.449219 72.589844 32.011719 C 72.5625 31.550781 72.453125 33.972656 72.371094 37.429688 L 72.234375 43.691406 L 70.308594 43.746094 C 69.070312 43.773438 68.328125 43.691406 68.191406 43.472656 C 68.082031 43.285156 68 39.0625 67.972656 34.082031 L 67.972656 25.042969 L 74.816406 25.042969 Z M 45.457031 25.644531 C 45.457031 25.914062 45.511719 25.914062 45.621094 25.644531 C 45.675781 25.480469 45.980469 25.316406 46.226562 25.316406 C 46.613281 25.316406 46.777344 25.617188 46.914062 26.570312 C 46.996094 27.25 46.996094 28.121094 46.914062 28.5 C 46.75 29.15625 46.695312 29.183594 44.355469 29.101562 C 43.039062 29.046875 41.855469 29.101562 41.71875 29.183594 C 41.554688 29.265625 41.5 30.082031 41.527344 31.007812 L 41.636719 32.667969 L 46.253906 32.667969 L 46.253906 36.339844 L 43.917969 36.234375 L 41.582031 36.152344 L 41.582031 40.234375 L 42.488281 40.234375 C 42.957031 40.234375 44.191406 40.234375 45.238281 40.261719 L 47.078125 40.289062 L 47.078125 44.046875 L 42.902344 44.074219 C 39.847656 44.101562 38.667969 44.019531 38.5 43.746094 C 38.335938 43.5 38.28125 43.5 38.28125 43.746094 C 38.28125 43.9375 38.035156 44.101562 37.730469 44.101562 C 37.183594 44.101562 37.183594 43.910156 37.183594 34.707031 L 37.183594 25.316406 L 41.304688 25.316406 C 44.414062 25.316406 45.429688 25.398438 45.457031 25.644531 Z M 109.042969 25.644531 C 109.097656 25.832031 109.757812 28.175781 110.5 30.84375 L 111.847656 35.660156 L 111.820312 31.796875 C 111.820312 29.644531 111.847656 27.304688 111.902344 26.597656 L 112.015625 25.289062 L 114.128906 25.371094 L 116.21875 25.453125 L 116.273438 34.625 L 116.328125 43.828125 L 113.882812 43.828125 C 111.4375 43.828125 111.410156 43.828125 111.242188 43.066406 C 111.132812 42.65625 110.695312 41.242188 110.28125 39.933594 C 109.484375 37.484375 109.457031 37.023438 110.199219 37.023438 C 110.417969 37.023438 110.527344 36.886719 110.445312 36.75 C 110.335938 36.585938 110.171875 36.53125 110.0625 36.613281 C 109.621094 36.859375 108.960938 36.042969 108.578125 34.707031 C 108.191406 33.429688 108.191406 33.703125 108.328125 38.574219 L 108.46875 43.828125 L 103.984375 43.828125 L 103.984375 25.316406 L 106.460938 25.316406 C 108.21875 25.316406 108.988281 25.425781 109.042969 25.644531 Z M 109.042969 25.644531 "/>
</g>
<path style=" stroke:none;fill-rule:nonzero;fill:rgb(0.784314%,35.294119%,99.215686%);fill-opacity:1;" d="M 41.304688 5.609375 C 41.304688 5.824219 41.441406 5.933594 41.582031 5.851562 C 41.746094 5.769531 41.855469 5.582031 41.855469 5.417969 C 41.855469 5.28125 41.746094 5.171875 41.582031 5.171875 C 41.441406 5.171875 41.304688 5.363281 41.304688 5.609375 Z M 41.304688 5.609375 "/>
<path style=" stroke:none;fill-rule:nonzero;fill:rgb(0.784314%,35.294119%,99.215686%);fill-opacity:1;" d="M 32.371094 5.714844 C 32.289062 5.851562 32.34375 5.988281 32.480469 5.988281 C 32.644531 5.988281 32.785156 5.851562 32.785156 5.714844 C 32.785156 5.554688 32.726562 5.445312 32.671875 5.445312 C 32.589844 5.445312 32.453125 5.554688 32.371094 5.714844 Z M 32.371094 5.714844 "/>
<path style=" stroke:none;fill-rule:nonzero;fill:rgb(0.784314%,35.294119%,99.215686%);fill-opacity:1;" d="M 33.058594 15 C 33.058594 15.136719 33.195312 15.191406 33.332031 15.109375 C 33.5 15.027344 33.609375 14.890625 33.609375 14.808594 C 33.609375 14.753906 33.5 14.699219 33.332031 14.699219 C 33.195312 14.699219 33.058594 14.835938 33.058594 15 Z M 33.058594 15 "/>
<path style=" stroke:none;fill-rule:nonzero;fill:rgb(0.784314%,35.294119%,99.215686%);fill-opacity:1;" d="M 33.800781 15.816406 C 33.636719 16.414062 33.964844 16.496094 34.40625 15.953125 C 34.652344 15.679688 34.625 15.542969 34.324219 15.433594 C 34.101562 15.351562 33.882812 15.488281 33.800781 15.816406 Z M 33.800781 15.816406 "/>
<path style=" stroke:none;fill-rule:nonzero;fill:rgb(0.784314%,35.294119%,99.215686%);fill-opacity:1;" d="M 34.15625 20.445312 C 34.15625 20.578125 34.296875 20.632812 34.433594 20.554688 C 34.597656 20.472656 34.707031 20.335938 34.707031 20.253906 C 34.707031 20.199219 34.597656 20.144531 34.433594 20.144531 C 34.296875 20.144531 34.15625 20.28125 34.15625 20.445312 Z M 34.15625 20.445312 "/>
<path style=" stroke:none;fill-rule:nonzero;fill:rgb(0.784314%,35.294119%,99.215686%);fill-opacity:1;" d="M 18.378906 10.671875 C 18.296875 11.625 18.128906 12.738281 18.074219 13.203125 C 17.691406 15.460938 17.773438 15.789062 18.761719 15.789062 C 19.3125 15.789062 19.585938 15.652344 19.585938 15.378906 C 19.585938 15.164062 19.753906 15 19.945312 15.054688 C 20.136719 15.082031 20.273438 14.808594 20.273438 14.292969 C 20.273438 13.773438 20.414062 13.503906 20.632812 13.53125 C 20.796875 13.582031 20.960938 13.421875 20.960938 13.203125 C 20.960938 12.984375 21.097656 12.792969 21.238281 12.792969 C 21.402344 12.792969 21.511719 12.6875 21.511719 12.550781 C 21.511719 12.386719 21.183594 12.46875 20.769531 12.6875 C 19.644531 13.230469 19.394531 13.175781 19.257812 12.25 C 19.175781 11.625 19.230469 11.433594 19.503906 11.542969 C 20.027344 11.761719 19.917969 11.160156 19.203125 9.992188 L 18.570312 8.957031 Z M 19.917969 14.101562 C 19.835938 14.5625 19.726562 14.644531 19.558594 14.375 C 19.203125 13.855469 19.257812 13.421875 19.671875 13.421875 C 19.917969 13.421875 20 13.664062 19.917969 14.101562 Z M 19.917969 14.101562 "/>
<path style=" stroke:none;fill-rule:nonzero;fill:rgb(0.784314%,35.294119%,99.215686%);fill-opacity:1;" d="M 16.207031 19.601562 C 16.125 19.898438 16.179688 20.144531 16.316406 20.144531 C 16.453125 20.144531 16.5625 19.898438 16.5625 19.601562 C 16.5625 19.300781 16.507812 19.054688 16.453125 19.054688 C 16.398438 19.054688 16.289062 19.300781 16.207031 19.601562 Z M 16.207031 19.601562 "/>
<path style=" stroke:none;fill-rule:nonzero;fill:rgb(0.784314%,35.294119%,99.215686%);fill-opacity:1;" d="M 1.992188 13.609375 C 1.691406 13.800781 1.828125 13.855469 2.460938 13.800781 C 2.957031 13.773438 3.367188 13.664062 3.367188 13.53125 C 3.367188 13.257812 2.488281 13.285156 1.992188 13.609375 Z M 1.992188 13.609375 "/>
<path style=" stroke:none;fill-rule:nonzero;fill:rgb(0.784314%,35.294119%,99.215686%);fill-opacity:1;" d="M 2.707031 16.46875 C 2.625 16.6875 2.679688 16.878906 2.816406 16.878906 C 2.984375 16.878906 3.09375 16.6875 3.09375 16.46875 C 3.09375 16.25 3.039062 16.0625 2.984375 16.0625 C 2.929688 16.0625 2.816406 16.25 2.707031 16.46875 Z M 2.707031 16.46875 "/>
<path style=" stroke:none;fill-rule:nonzero;fill:rgb(0.784314%,35.294119%,99.215686%);fill-opacity:1;" d="M 6.667969 20.007812 C 6.472656 20.226562 6.199219 20.335938 6.035156 20.226562 C 5.871094 20.117188 5.8125 20.28125 5.898438 20.632812 C 6.007812 20.960938 5.953125 21.234375 5.8125 21.234375 C 5.675781 21.234375 5.566406 21.421875 5.566406 21.640625 C 5.566406 21.886719 5.8125 22.050781 6.253906 22.050781 C 6.75 22.050781 6.886719 21.941406 6.777344 21.640625 C 6.640625 21.34375 6.722656 21.289062 7.050781 21.398438 C 7.546875 21.585938 7.601562 21.316406 7.214844 20.6875 C 7.078125 20.445312 7.078125 20.171875 7.273438 19.953125 C 7.464844 19.734375 7.464844 19.601562 7.273438 19.601562 C 7.132812 19.601562 6.859375 19.789062 6.667969 20.007812 Z M 6.667969 20.007812 "/>
<path style=" stroke:none;fill-rule:nonzero;fill:rgb(0.784314%,35.294119%,99.215686%);fill-opacity:1;" d="M 3.644531 21.503906 C 3.644531 21.640625 3.78125 21.777344 3.917969 21.777344 C 4.082031 21.777344 4.191406 21.640625 4.191406 21.503906 C 4.191406 21.34375 4.082031 21.234375 3.917969 21.234375 C 3.78125 21.234375 3.644531 21.34375 3.644531 21.503906 Z M 3.644531 21.503906 "/>
<path style=" stroke:none;fill-rule:nonzero;fill:rgb(0.784314%,35.294119%,99.215686%);fill-opacity:1;" d="M 53.128906 24.773438 C 53.128906 24.910156 53.320312 24.960938 53.539062 24.882812 C 53.757812 24.773438 53.953125 24.664062 53.953125 24.609375 C 53.953125 24.554688 53.757812 24.5 53.539062 24.5 C 53.320312 24.5 53.128906 24.609375 53.128906 24.773438 Z M 53.128906 24.773438 "/>
<path style=" stroke:none;fill-rule:nonzero;fill:rgb(0.784314%,35.294119%,99.215686%);fill-opacity:1;" d="M 56.699219 29.265625 C 56.699219 31.035156 56.757812 31.304688 57.195312 31.304688 C 57.472656 31.304688 57.964844 31.113281 58.296875 30.871094 C 58.789062 30.542969 58.902344 30.191406 58.902344 29.128906 C 58.902344 27.710938 58.488281 27.222656 57.277344 27.222656 C 56.757812 27.222656 56.699219 27.386719 56.699219 29.265625 Z M 56.699219 29.265625 "/>
<path style=" stroke:none;fill-rule:nonzero;fill:rgb(0.784314%,35.294119%,99.215686%);fill-opacity:1;" d="M 53.8125 35.390625 C 53.730469 35.523438 53.785156 35.660156 53.925781 35.660156 C 54.089844 35.660156 54.226562 35.523438 54.226562 35.390625 C 54.226562 35.226562 54.171875 35.117188 54.117188 35.117188 C 54.035156 35.117188 53.898438 35.226562 53.8125 35.390625 Z M 53.8125 35.390625 "/>
<path style=" stroke:none;fill-rule:nonzero;fill:rgb(0.784314%,35.294119%,99.215686%);fill-opacity:1;" d="M 53.871094 38.164062 C 53.511719 38.4375 53.484375 38.628906 53.703125 38.929688 C 53.953125 39.28125 53.980469 39.253906 53.84375 38.847656 C 53.757812 38.546875 53.84375 38.382812 54.089844 38.382812 C 54.308594 38.382812 54.5 38.246094 54.5 38.109375 C 54.5 37.757812 54.417969 37.757812 53.871094 38.164062 Z M 53.871094 38.164062 "/>
<path style=" stroke:none;fill-rule:nonzero;fill:rgb(0.784314%,35.294119%,99.215686%);fill-opacity:1;" d="M 93.871094 31.984375 C 93.675781 33.484375 93.457031 35.144531 93.375 35.660156 C 93.210938 36.585938 93.238281 36.613281 94.089844 36.640625 L 94.96875 36.667969 L 94.777344 34.273438 C 94.667969 32.613281 94.695312 31.851562 94.886719 31.851562 C 95.050781 31.851562 95.1875 31.632812 95.160156 31.359375 C 95.160156 31.085938 95.078125 31.035156 94.996094 31.222656 C 94.722656 31.933594 94.390625 31.550781 94.308594 30.40625 C 94.253906 29.535156 94.144531 29.917969 93.871094 31.984375 Z M 93.871094 31.984375 "/>
<path style=" stroke:none;fill-rule:nonzero;fill:rgb(0.784314%,35.294119%,99.215686%);fill-opacity:1;" d="M 95.738281 33.753906 C 95.738281 33.890625 95.929688 34.027344 96.179688 34.027344 C 96.398438 34.027344 96.507812 33.890625 96.425781 33.753906 C 96.34375 33.59375 96.152344 33.484375 95.984375 33.484375 C 95.847656 33.484375 95.738281 33.59375 95.738281 33.753906 Z M 95.738281 33.753906 "/>
<path style=" stroke:none;fill-rule:nonzero;fill:rgb(0.784314%,35.294119%,99.215686%);fill-opacity:1;" d="M 91.53125 40.804688 C 91.421875 41.269531 91.449219 41.378906 91.671875 41.160156 C 91.808594 41.023438 91.890625 40.722656 91.835938 40.535156 C 91.753906 40.316406 91.644531 40.453125 91.53125 40.804688 Z M 91.53125 40.804688 "/>
<path style=" stroke:none;fill-rule:nonzero;fill:rgb(0.784314%,35.294119%,99.215686%);fill-opacity:1;" d="M 88.8125 41.566406 C 89.003906 41.648438 89.25 41.621094 89.332031 41.542969 C 89.441406 41.460938 89.277344 41.378906 88.976562 41.40625 C 88.671875 41.40625 88.589844 41.488281 88.8125 41.566406 Z M 88.8125 41.566406 "/>
<path style=" stroke:none;fill-rule:nonzero;fill:rgb(0.784314%,35.294119%,99.215686%);fill-opacity:1;" d="M 22.613281 36.859375 C 22.613281 36.914062 22.804688 37.050781 23.050781 37.132812 C 23.273438 37.210938 23.382812 37.183594 23.300781 37.023438 C 23.132812 36.75 22.613281 36.640625 22.613281 36.859375 Z M 22.613281 36.859375 "/>
<path style=" stroke:none;fill-rule:nonzero;fill:rgb(0.784314%,35.294119%,99.215686%);fill-opacity:1;" d="M 68.742188 26.867188 C 68.933594 26.949219 69.183594 26.921875 69.265625 26.839844 C 69.375 26.757812 69.210938 26.679688 68.90625 26.703125 C 68.605469 26.703125 68.523438 26.785156 68.742188 26.867188 Z M 68.742188 26.867188 "/>
<path style=" stroke:none;fill-rule:nonzero;fill:rgb(0.784314%,35.294119%,99.215686%);fill-opacity:1;" d="M 81.992188 38.109375 C 81.992188 38.246094 82.128906 38.382812 82.296875 38.382812 C 82.433594 38.382812 82.488281 38.246094 82.40625 38.109375 C 82.324219 37.949219 82.1875 37.839844 82.101562 37.839844 C 82.046875 37.839844 81.992188 37.949219 81.992188 38.109375 Z M 81.992188 38.109375 "/>
<path style=" stroke:none;fill-rule:nonzero;fill:rgb(0.784314%,35.294119%,99.215686%);fill-opacity:1;" d="M 81.441406 39.363281 C 81.441406 39.582031 81.582031 39.691406 81.71875 39.609375 C 81.882812 39.5 81.9375 39.308594 81.855469 39.171875 C 81.609375 38.792969 81.441406 38.875 81.441406 39.363281 Z M 81.441406 39.363281 "/>
<path style=" stroke:none;fill-rule:nonzero;fill:rgb(0.784314%,35.294119%,99.215686%);fill-opacity:1;" d="M 44.082031 42.332031 C 43.585938 43.175781 43.585938 43.285156 43.972656 43.285156 C 44.21875 43.285156 44.328125 43.203125 44.246094 43.09375 C 44.136719 43.011719 44.164062 42.792969 44.300781 42.628906 C 44.578125 42.277344 44.90625 41.378906 44.769531 41.378906 C 44.714844 41.378906 44.414062 41.8125 44.082031 42.332031 Z M 44.082031 42.332031 "/>
<path style=" stroke:none;fill-rule:nonzero;fill:rgb(0.784314%,35.294119%,99.215686%);fill-opacity:1;" d="M 109.320312 30.625 C 109.898438 31.058594 110.199219 30.980469 109.898438 30.515625 C 109.8125 30.351562 109.511719 30.214844 109.265625 30.214844 C 108.851562 30.242188 108.851562 30.269531 109.320312 30.625 Z M 109.320312 30.625 "/>
<path style=" stroke:none;fill-rule:nonzero;fill:rgb(0.784314%,35.294119%,99.215686%);fill-opacity:1;" d="M 113.746094 39.144531 C 113.582031 39.308594 113.855469 39.746094 114.15625 39.746094 C 114.269531 39.746094 114.433594 39.582031 114.515625 39.390625 C 114.652344 39.035156 114.046875 38.847656 113.746094 39.144531 Z M 113.746094 39.144531 "/>
</g>
</svg>
